<?xml version="1.0" encoding="UTF-8"?>
<svg id="Layer_1" data-name="Layer 1" xmlns="http://www.w3.org/2000/svg" xmlns:xlink="http://www.w3.org/1999/xlink" viewBox="0 0 200.59 45.36">
  <defs>
    <style>
      .cls-1 {
        clip-path: url(#clippath);
      }

      .cls-2, .cls-3 {
        fill: none;
      }

      .cls-2, .cls-4, .cls-5 {
        stroke-width: 0px;
      }

      .cls-3 {
        stroke: #000;
        stroke-width: .2px;
      }

      .cls-5 {
        fill: #fff;
      }
    </style>
    <clipPath id="clippath">
      <path class="cls-2" d="m.02,0v7.07C.02,13.88-.53,21.06,4.67,31.19c5.08,9.89,13.64,14.04,14.02,14.15,0,0,.01,0,.01,0t0,0s0,0,0,0c0,0,0,0,.01,0,.38-.11,8.94-4.26,14.02-14.15,5.2-10.13,4.65-17.32,4.65-24.13V0H.02Z"/>
    </clipPath>
  </defs>
  <g class="cls-1">
    <path class="cls-4" d="m28.7,30.52l.42-.03c-.36-1.6-.9-2.51-.9-2.51l.43-.13s-.38-1.09-1.57-2.77l.92-.22c-.62-1.14-1.61-2.49-4.22-5.6l-.88-2.72c.33-.66.78-2.07.78-2.07l.33.04c.73-1.67,1.27-4.06,1.27-4.06l.25-.02c.07-1.53-.42-2.74-.42-2.74l.27-.09c-.24-.94-.81-1.57-.92-1.69.44-.12.76-.51.76-.99,0-.57-.46-1.03-1.02-1.03-.28,0-.54.12-.73.31-.28-.53-1.03-.75-2.02-.65-1.31.14-1.62.31-2.5.54-.58.15-.51.6-.51.6l-1.61.63c-.31-.08-.71-.03-.75.14-.03.11-.01.23.25.66,0,0,.1-.29.21-.19.11.1-.06.24-.1.31-.05.08-.06.55.16.65,0,0,.03.01.08.03,0,.17.04.33.1.46h-.89c-.33,0-.53-.1-.65-.33l-.1-.18-.18.11c-.1.06-.26.24-.24.52.03.46.58.66,1.11.66h.87c-.04.09-.07.2-.06.31.03.3.26.4.44.42.28.02.52-.14.52-.14,0,0,1.27-.07,1.8.44l-.32.58c-.32-.09-.94-.23-1.57-.13l-.03.26s-1.05.04-1.64.42l.06.22s-.85.37-1.23.91l.2.24s-.56.6-1.23,1.68l.45-1.39s-.76-1.07-2.76-2.54c-.15-.1-.13-.65.09-1.28.2-.57.17-1.59.15-1.9,0-.06,0-.13-.03-.19-.08-.22-.22-.51-.23-.52h0s0,0,0,0c-.07-.1-.17-.19-.29-.26-.26-.15-.53-.17-.54-.17h-.09s.03.08.03.08c0,.02.2.59.25.72.06.16-.03.33-.09.45l-.02.04-.12.25c0-.11-.01-.21-.01-.27,0-.03,0-.06,0-.09,0-.17-.02-.38-.15-.53-.14-.16-.37-.36-.38-.36h0s0,0,0,0c0,0-.02-.01-.03-.02-.36-.21-.82-.07-.84-.06l-.09.03.06.07s.38.43.47.53c.11.11.09.29.08.41v.04s-.02.3-.02.3c0,0,0,0,0-.01-.01-.02-.02-.05-.03-.08-.05-.16-.12-.36-.29-.47-.03-.02-.07-.04-.11-.07-.17-.1-.35-.18-.36-.18h0s0,0,0,0c-.41-.13-.84.14-.86.15l-.08.05.08.05s.48.32.59.38c.13.08.17.25.19.38v.04s.08.37.08.37c.2,1.3.67,2.64.67,2.64l-.34.15s.36.98.92,1.63l-.3.28s.55.68,1.17,1.24l-.22.32s.87,1,1.9,1.71c-.36.56-.87,1.35-1.37,2.05-.91,1.29-.81,1.15-.81,1.15-.16.21-.48.17-.52-.01l-.42-1.36c-.02-.12-.04-.22-.05-.28,0-.03-.01-.06-.02-.09-.03-.18-.07-.4-.24-.55-.18-.16-.45-.33-.46-.34h0s0,0,0,0c-.11-.05-.24-.08-.39-.08-.3,0-.54.12-.55.12l-.09.04.07.06s.47.41.58.5c.13.11.14.3.15.43v.05s.02.28.02.28c-.06-.1-.12-.18-.15-.23-.02-.02-.03-.05-.05-.07-.09-.14-.2-.32-.4-.38-.21-.07-.5-.12-.51-.12h0s0,0,0,0c-.01,0-.02,0-.03,0-.42,0-.75.35-.76.37l-.06.07.09.03s.55.18.67.22c.15.05.22.2.28.31l.02.04.13.27s0,0-.01,0c-.02-.02-.04-.04-.06-.06-.13-.11-.28-.25-.49-.26-.04,0-.08,0-.12,0-.19,0-.39.02-.4.02h0c-.42.1-.66.55-.67.57l-.04.08h.1s.58.04.7.04c.16,0,.27.13.35.23l.03.03.21.24c.15.23,1.16,1.75,1.31,1.95.22.29.47.28.95.15.47-.14,1.67-.9,1.67-.9l.11.4s.76-.26,1.61-.98l.16.34s.57-.38,1.37-1.12l.18.32s1.14-.78,3.05-2.12l-1.24,1.47.88,2.12c-.61.02-1.35.05-1.73.14-.17.04-.41.22-.59.43-1.21,1.43-1.89,3.08-1.89,3.08l.34.19s-.68,1.23-.87,2.18l.36.1s-.22,1.04-.22,2.05l.33.08.07.95c0,.16,0,.34-.31.3l-2.89-.22c-.07-.01-.14-.02-.21-.02-.1,0-.18.02-.26.05-.22.1-.48.28-.49.29h0s0,0,0,0c-.35.31-.34.86-.34.88v.1s.09-.04.09-.04c.02-.01.57-.27.69-.34.05-.02.1-.04.16-.04.11,0,.21.04.3.07l.04.02h.03s-.03.02-.05.02c-.17.03-.37.06-.51.21-.15.16-.31.41-.32.42h0s0,0,0,0c-.19.39.01.85.02.87l.04.09.06-.07s.38-.43.47-.53c.1-.12.27-.13.4-.13h.04s.07,0,.07,0c-.14.07-.29.15-.37.31-.1.2-.19.48-.19.49h0s0,0,0,0c-.08.43.24.82.26.84l.06.07.04-.09s.26-.52.31-.63c.07-.14.23-.19.35-.23h.04s.35-.13.35-.13c.78-.12,3.27-.07,3.76-.06.45,0,.66-.14.66-.52v-.59s.51.27.51.27c.22-.68.65-1.93.65-1.93l.32.18c.4-.94.7-1.8.7-1.8l.37.15s.38-.63.89-1.86l-.24-1.67c.51,1.21,1.19,2.52,2.07,3.64l.25-.26s.63.75,1.35,1.37l.23-.29s.62.68,1.47,1.33l.29-.32,1.01.86c.18.15.17.49-.14.49,0,0-2.13-.2-3.05-.28h0s-.05,0-.07,0c-.1,0-.18.02-.26.05-.22.1-.48.28-.49.29h0s0,0,0,0c-.35.31-.34.86-.34.88v.1s.09-.04.09-.04c.02-.01.57-.27.69-.33.05-.02.1-.04.16-.04.11,0,.21.04.3.07l.04.02h.03s-.03.02-.05.02c-.17.03-.37.06-.51.21-.15.16-.31.41-.32.42h0s0,0,0,0c-.19.39.01.85.02.87l.04.09.06-.07s.39-.43.47-.53c.1-.12.27-.12.4-.13h.04s.07,0,.07,0c-.14.07-.29.15-.37.31-.1.2-.19.48-.2.49h0c-.08.44.24.83.25.84l.06.07.04-.08s.26-.52.31-.63c.07-.14.23-.19.35-.23h.04s.57-.2.57-.2c.81-.15,2.65-.18,4.32-.2.47,0,.46-.26.39-.55l-.1-.59.81.25c0-.76-.17-1.6-.17-1.6"/>
    <path class="cls-5" d="m18.15,7.36s.18-.22.33-.48c-.25,0-.46.01-.65.02.04.08.14.27.32.46"/>
    <path class="cls-5" d="m18.47,6.88c.03.07.13.27.32.47,0,0,.17-.21.32-.46-.12,0-.28-.01-.49-.01-.05,0-.1,0-.15,0"/>
    <path class="cls-5" d="m18.84,7.93c.22-.02.41-.04.56-.07-.15-.21-.29-.36-.29-.36-.14.17-.23.34-.27.43"/>
    <path class="cls-5" d="m18.21,7.96c.18,0,.36,0,.52-.02.03,0,.07,0,.1,0-.16-.24-.34-.43-.34-.43-.16.19-.24.37-.28.46"/>
    <path class="cls-5" d="m19.66,7.04c-.08-.07-.16-.09-.16-.09,0,0-.07-.04-.39-.06.03.07.13.27.32.47,0,0,.11-.14.23-.32"/>
    <path class="cls-5" d="m20.17,5.55s-.51-.03-.82-.19c-.32-.16-.47.07-.5.16-.03.1-.02.27.35.33s.73-.12.97-.3"/>
    <path class="cls-5" d="m16.85,7.58h-.98c-.3,0-.63-.07-.82-.43,0,0-.17.1-.15.34.02.31.45.47.92.47h1.28c-.11-.14-.18-.27-.24-.39"/>
    <path class="cls-5" d="m17.33,7.79c.02-.37.09-.67.16-.87-.21.01-.39.03-.56.03.05.37.24.66.41.84"/>
    <path class="cls-5" d="m17.67,7.19c-.07.19-.12.47-.07.77.19,0,.39,0,.59,0-.15-.16-.35-.41-.52-.77"/>
    <path class="cls-5" d="m22.4,31.03s-.11-.02-.14-.03c-.15-.04-.33-.08-.46-.01-.18.09-.41.24-.46.27-.08.07-.15.18-.19.31-.02.06-.03.11-.05.17.17-.08.38-.19.45-.22.24-.12.48-.03.62.03h.04c.18.08.33.08.58-.09,0,0-.03-.33-.4-.41"/>
    <path class="cls-5" d="m22.29,31.93s-.1.02-.13.02c-.14.02-.31.05-.4.15-.12.14-.27.35-.3.39-.04.09-.06.2-.06.33,0,.06.01.11.02.16.11-.13.26-.29.31-.35.16-.18.4-.19.54-.2h.04c.17-.01.31-.06.46-.29,0,0-.14-.27-.49-.21"/>
    <path class="cls-5" d="m22.33,33.54c.1-.22.33-.29.47-.34h.04c.17-.07.28-.15.36-.41,0,0-.21-.22-.53-.07-.03.01-.09.04-.12.06-.13.06-.28.13-.34.25-.08.17-.16.41-.18.45-.02.1,0,.21.03.33.02.05.04.1.06.15.08-.16.17-.35.2-.41"/>
    <path class="cls-5" d="m10.08,29.8s-.11-.02-.14-.03c-.15-.04-.33-.08-.46-.01-.18.09-.41.24-.46.27-.08.08-.15.18-.19.31-.02.06-.04.11-.05.17.17-.08.38-.19.45-.22.23-.12.48-.03.62.03h.04c.18.08.33.08.58-.09,0,0-.03-.33-.4-.41"/>
    <path class="cls-5" d="m9.97,30.71s-.1.02-.13.02c-.14.02-.31.05-.4.15-.12.14-.27.35-.3.39-.04.09-.06.2-.06.33,0,.06.01.11.02.16.12-.13.26-.29.31-.35.16-.18.4-.19.54-.2h.04c.17-.01.3-.06.46-.3,0,0-.14-.27-.49-.21"/>
    <path class="cls-5" d="m10.35,31.49s-.09.04-.12.06c-.13.06-.28.13-.34.25-.08.16-.16.41-.18.45-.02.1,0,.21.03.33.02.05.04.1.06.15.08-.16.17-.35.2-.41.1-.22.33-.29.47-.34h.04c.16-.07.28-.15.36-.42,0,0-.21-.22-.53-.07"/>
    <path class="cls-5" d="m11.22,6.71s.04-.1.05-.14c.05-.15.11-.32.07-.46-.06-.19-.19-.44-.21-.49-.06-.09-.16-.17-.28-.23-.06-.03-.11-.05-.16-.06.06.18.14.4.16.47.09.25-.03.48-.1.62l-.02.04c-.08.17-.11.32.03.59,0,0,.33,0,.46-.35"/>
    <path class="cls-5" d="m10.21,6.42s0-.1,0-.13c0-.15-.01-.31-.1-.41-.12-.14-.31-.31-.35-.34-.09-.05-.19-.08-.32-.09-.06,0-.11,0-.16,0,.11.13.26.29.31.34.16.18.15.42.13.56v.04c-.01.17.02.31.23.49,0,0,.28-.11.27-.46"/>
    <path class="cls-5" d="m9.31,6.77s-.03-.1-.04-.13c-.05-.14-.1-.29-.21-.37-.15-.1-.38-.21-.43-.23-.1-.03-.21-.03-.33,0-.05.01-.11.03-.15.04.15.09.33.21.39.25.2.13.25.36.28.51v.04c.04.17.11.29.37.41,0,0,.24-.18.14-.51"/>
    <path class="cls-5" d="m9.14,16.91s-.02-.11-.03-.14c-.03-.16-.06-.33-.17-.43-.15-.13-.38-.28-.43-.31-.1-.05-.22-.06-.36-.06-.06,0-.12.01-.17.02.14.12.32.28.38.33.2.17.22.43.22.58v.04c.01.19.07.33.33.49,0,0,.29-.16.22-.53"/>
    <path class="cls-5" d="m8.12,17.16s-.06-.08-.07-.11c-.08-.12-.17-.26-.3-.3-.18-.06-.43-.11-.47-.12-.1,0-.21.02-.32.08-.05.02-.1.05-.14.08.16.06.37.12.44.14.23.07.33.29.4.42l.02.04c.08.16.18.26.45.3,0,0,.19-.24,0-.53"/>
    <path class="cls-5" d="m7.52,17.92s-.08-.07-.1-.09c-.11-.1-.23-.21-.37-.22-.18-.01-.44.01-.49.01-.1.02-.2.08-.29.16-.04.04-.08.08-.11.11.17,0,.39.02.46.02.24,0,.4.19.49.3l.03.03c.12.13.24.2.51.17,0,0,.12-.28-.14-.51"/>
  </g>
  <g>
    <path class="cls-3" d="m37.3.1v6.97c0,.58,0,1.17,0,1.76.04,6.43.09,13.08-4.65,22.32-5.03,9.8-13.54,13.92-13.94,14.1-.64-.29-8.99-4.43-13.95-14.1C.02,21.91.07,15.26.11,8.83c0-.59,0-1.18,0-1.76V.1h37.19Z"/>
    <g>
      <path class="cls-4" d="m57.35,27.81c-.24,1.24-.52,2.47-.84,3.7-.32,1.22-.65,2.37-.99,3.42-.34,1.06-.67,2-.99,2.83-.32.83-.6,1.47-.83,1.93h-1.88c-.23-.46-.5-1.1-.81-1.93s-.63-1.77-.96-2.83c-.33-1.06-.65-2.2-.97-3.42-.32-1.22-.6-2.46-.85-3.7v-.12h1.47c.2,1.03.41,2.05.65,3.05s.48,1.96.74,2.88c.26.92.54,1.79.83,2.61.29.82.59,1.57.91,2.24.31-.68.61-1.43.91-2.25.29-.82.57-1.7.84-2.62s.51-1.88.74-2.88c.23-.99.44-2.01.64-3.04h1.41v.12Z"/>
      <path class="cls-4" d="m58.81,27.69h1.47v12h-1.47v-12Z"/>
      <path class="cls-4" d="m62.64,27.69h3.03c1.81,0,3.15.42,4,1.27.85.84,1.28,2.08,1.28,3.72v1.77c0,.77-.09,1.48-.27,2.12-.18.65-.48,1.2-.88,1.66-.41.46-.93.82-1.56,1.08-.64.26-1.41.38-2.31.38h-3.28v-12Zm3.28,10.72c.66,0,1.21-.08,1.66-.25.45-.17.82-.42,1.1-.75.28-.33.48-.75.61-1.24.12-.49.19-1.07.19-1.73v-1.77c0-1.3-.32-2.24-.96-2.83-.64-.58-1.59-.88-2.85-.88h-1.55v9.44h1.8Z"/>
      <path class="cls-4" d="m72.9,27.69h6.31v1.31h-4.83v3.67h4.36v1.33h-4.36v2.56c0,.62.15,1.08.45,1.38.3.29.7.44,1.2.44h3.19v1.31h-3.06c-1.07,0-1.88-.26-2.43-.78-.55-.52-.82-1.34-.82-2.47v-8.75Z"/>
      <path class="cls-4" d="m81.01,27.69h3.38c1.26,0,2.18.29,2.76.87s.87,1.5.87,2.76c0,.49-.05.92-.16,1.28-.1.37-.25.68-.45.95-.19.27-.42.51-.7.7-.27.2-.57.37-.89.5.35.33.7.72,1.02,1.17.33.45.62.9.88,1.36.25.46.47.89.66,1.3.18.41.31.73.38.98v.12h-1.53c-.06-.25-.19-.58-.39-1-.2-.42-.43-.85-.7-1.3-.27-.45-.55-.87-.85-1.27-.3-.4-.59-.72-.88-.96h-1.94v4.53h-1.47v-12Zm3.03,6.19c.47,0,.86-.06,1.18-.19.32-.12.57-.3.77-.53.19-.23.33-.5.42-.81.09-.31.13-.66.13-1.03,0-.45-.04-.82-.12-1.12-.08-.3-.21-.54-.39-.72-.18-.18-.41-.31-.7-.39-.29-.08-.63-.12-1.04-.12h-1.81v4.91h1.56Z"/>
      <path class="cls-4" d="m90.15,27.69h6.31v1.31h-4.83v3.67h4.36v1.33h-4.36v2.56c0,.62.15,1.08.45,1.38.3.29.7.44,1.2.44h3.19v1.31h-3.06c-1.07,0-1.88-.26-2.43-.78-.55-.52-.82-1.34-.82-2.47v-8.75Z"/>
      <path class="cls-4" d="m97.78,32.81c0-.84.13-1.59.39-2.24.26-.65.63-1.2,1.1-1.65.47-.45,1.04-.79,1.7-1.02.66-.23,1.38-.34,2.19-.34.31,0,.62.02.93.05.31.04.59.08.86.13.27.05.5.11.71.17.21.06.38.12.5.17v1.25h-.12c-.29-.09-.7-.2-1.22-.32-.52-.12-1.07-.18-1.66-.18s-1.1.07-1.58.22c-.48.15-.89.38-1.23.7-.34.32-.61.73-.8,1.23-.19.51-.29,1.11-.29,1.82v1.62c0,1.33.29,2.35.86,3.05.57.7,1.48,1.05,2.73,1.05h.5c.28,0,.54-.02.77-.06.23-.04.46-.09.66-.14v-3.23h-2.19v-1.28h3.53v5.38c-.12.06-.28.13-.48.2-.21.07-.44.14-.7.2-.26.06-.52.11-.8.16-.28.04-.55.06-.8.06h-.5c-.9,0-1.66-.13-2.3-.4s-1.16-.64-1.57-1.12c-.41-.48-.71-1.05-.9-1.7-.19-.66-.29-1.38-.29-2.16v-1.62Z"/>
      <path class="cls-4" d="m107.41,39.56c.25-1.25.54-2.48.87-3.7s.66-2.36,1-3.41c.34-1.06.67-2,.98-2.83s.6-1.47.84-1.93h1.88c.23.46.5,1.1.82,1.93s.64,1.77.97,2.83c.33,1.06.65,2.2.98,3.41s.61,2.45.86,3.7v.12h-1.47c-.1-.5-.21-.99-.31-1.48s-.21-.97-.33-1.46h-5.03c-.11.49-.22.98-.33,1.46s-.21.98-.31,1.48h-1.41v-.12Zm4.56-10.66c-.41.89-.79,1.88-1.16,2.98-.36,1.1-.71,2.29-1.03,3.55h4.38c-.32-1.26-.67-2.44-1.03-3.55-.36-1.1-.75-2.1-1.16-2.98Zm.03-2.28c-.62,0-1.08-.16-1.38-.48-.29-.32-.44-.7-.44-1.14s.15-.82.44-1.14c.29-.32.75-.48,1.38-.48s1.08.16,1.38.48c.29.32.44.7.44,1.14s-.15.82-.44,1.14c-.29.32-.75.48-1.38.48Zm0-.62c.38,0,.65-.1.81-.31.17-.21.25-.44.25-.69s-.08-.48-.25-.69c-.17-.21-.44-.31-.81-.31s-.65.1-.81.31c-.17.21-.25.44-.25.69s.08.48.25.69c.17.21.44.31.81.31Z"/>
      <path class="cls-4" d="m117.82,27.69h6.31v1.31h-4.83v3.67h4.36v1.33h-4.36v2.56c0,.62.15,1.08.45,1.38.3.29.7.44,1.2.44h3.19v1.31h-3.06c-1.07,0-1.88-.26-2.43-.78-.55-.52-.82-1.34-.82-2.47v-8.75Z"/>
      <path class="cls-4" d="m125.93,27.69h1l5.98,8.78v-8.78h1.45v12h-1l-5.95-8.75v8.75h-1.48v-12Z"/>
      <path class="cls-4" d="m136.74,27.69h3.03c1.81,0,3.15.42,4,1.27.85.84,1.28,2.08,1.28,3.72v1.77c0,.77-.09,1.48-.27,2.12-.18.65-.48,1.2-.88,1.66-.41.46-.93.82-1.56,1.08-.64.26-1.41.38-2.31.38h-3.28v-12Zm3.28,10.72c.66,0,1.21-.08,1.66-.25.45-.17.82-.42,1.1-.75.28-.33.48-.75.61-1.24.12-.49.19-1.07.19-1.73v-1.77c0-1.3-.32-2.24-.96-2.83-.64-.58-1.59-.88-2.85-.88h-1.55v9.44h1.8Z"/>
      <path class="cls-4" d="m146.99,27.69h6.31v1.31h-4.83v3.67h4.36v1.33h-4.36v2.56c0,.62.15,1.08.45,1.38.3.29.7.44,1.2.44h3.19v1.31h-3.06c-1.07,0-1.88-.26-2.43-.78-.55-.52-.82-1.34-.82-2.47v-8.75Z"/>
      <path class="cls-4" d="m158.4,38.06h.14c.15.05.33.1.54.16.21.05.44.1.68.15s.48.09.73.12.49.05.72.05h.44c.75,0,1.35-.17,1.8-.5.45-.33.68-.88.68-1.62,0-.33-.04-.61-.13-.84-.09-.23-.21-.42-.38-.58s-.35-.28-.58-.38c-.22-.1-.47-.18-.74-.26l-1.25-.34c-.27-.07-.55-.18-.85-.33-.3-.15-.57-.34-.81-.59-.25-.24-.45-.55-.61-.91s-.24-.79-.24-1.3c0-.48.08-.92.24-1.32.16-.4.4-.75.71-1.05s.7-.53,1.16-.7c.46-.17.98-.25,1.56-.25h.34c.21,0,.43.02.68.05s.48.07.72.12.45.1.65.16c.2.06.36.12.48.18v1.22h-.12c-.15-.04-.32-.09-.51-.14-.19-.05-.4-.1-.62-.15s-.44-.08-.66-.11c-.22-.03-.43-.04-.62-.04h-.38c-.69,0-1.22.16-1.61.49s-.58.82-.58,1.48c0,.31.04.57.12.78.08.21.2.38.34.52s.31.26.51.35.42.17.66.23l1.22.36c.31.09.63.21.96.34.33.14.62.33.89.57.27.25.48.56.65.94.17.38.25.86.25,1.43,0,.53-.09,1.01-.26,1.44-.17.43-.43.79-.77,1.09-.34.3-.75.53-1.24.7s-1.05.24-1.67.24h-.44c-.25,0-.51-.02-.79-.05s-.54-.07-.8-.12-.49-.1-.71-.15c-.22-.05-.39-.1-.52-.16v-1.28Z"/>
      <path class="cls-4" d="m167.28,27.69h1.48v5.12h.73l4.09-5.12h1.53v.12l-4.47,5.5,4.59,6.25v.12h-1.62l-4.19-5.62h-.67v5.62h-1.48v-12Z"/>
      <path class="cls-4" d="m175.51,33.19c0-.88.1-1.66.3-2.35.2-.69.5-1.28.9-1.77.4-.48.88-.86,1.47-1.12.58-.26,1.25-.39,2.02-.39,1.53,0,2.7.48,3.49,1.45.8.96,1.2,2.36,1.2,4.18v1c0,.88-.1,1.66-.3,2.36-.2.7-.5,1.29-.9,1.77-.4.48-.89.85-1.47,1.11-.58.26-1.26.38-2.02.38-1.53,0-2.7-.48-3.49-1.45-.8-.96-1.2-2.36-1.2-4.18v-1Zm1.47,1c0,1.51.27,2.61.81,3.3.54.69,1.34,1.04,2.41,1.04s1.86-.35,2.41-1.04c.54-.69.81-1.79.81-3.3v-1c0-1.52-.27-2.62-.8-3.31-.54-.69-1.34-1.03-2.41-1.03s-1.88.34-2.41,1.03c-.54.69-.8,1.79-.8,3.31v1Z"/>
      <path class="cls-4" d="m186.81,27.69h1.48v8.88c0,.62.15,1.08.45,1.38.3.29.7.44,1.2.44h2.97v1.31h-2.84c-1.07,0-1.88-.27-2.43-.8-.55-.54-.82-1.35-.82-2.45v-8.75Z"/>
      <path class="cls-4" d="m194.28,27.69h6.31v1.31h-4.83v3.67h4.36v1.33h-4.36v2.56c0,.62.15,1.08.45,1.38.3.29.7.44,1.2.44h3.19v1.31h-3.06c-1.07,0-1.88-.26-2.43-.78-.55-.52-.82-1.34-.82-2.47v-8.75Z"/>
    </g>
    <g>
      <path class="cls-4" d="m48.9,2.79h4.52v7.24h6.58V2.79h4.47v18.53h-4.47v-7.77h-6.63v7.77h-4.47V2.79Z"/>
      <path class="cls-4" d="m69.26,18.97c-1.25-1.53-1.88-3.67-1.88-6.44v-1.08c0-2.81.68-4.99,2.04-6.54,1.36-1.54,3.47-2.32,6.31-2.32,2.2,0,3.99.49,5.36,1.47l1.02-1.28h1.98l-1.88,2.34c1.25,1.48,1.88,3.59,1.88,6.32v1.08c0,1.4-.17,2.65-.51,3.76-.34,1.11-.85,2.05-1.55,2.82-.69.77-1.56,1.36-2.6,1.77s-2.27.62-3.69.62c-1.15,0-2.17-.13-3.06-.39-.89-.26-1.66-.63-2.32-1.13l-1.07,1.33h-1.88l1.85-2.34Zm2.64-6.44c0,.53.02,1.03.06,1.48.04.46.11.89.22,1.29l6.42-8.08c-.3-.42-.69-.73-1.16-.94-.47-.21-1.04-.31-1.71-.31-.75,0-1.36.12-1.85.37-.49.25-.88.61-1.18,1.08-.3.47-.5,1.05-.62,1.72-.12.68-.18,1.44-.18,2.29v1.08Zm7.67-1.08c0-.51-.02-.99-.06-1.44-.04-.44-.11-.85-.22-1.22l-6.42,8.06c.29.4.66.71,1.13.93.47.22,1.04.33,1.74.33s1.34-.13,1.84-.39c.5-.26.89-.63,1.18-1.11.29-.48.5-1.07.62-1.76.13-.69.19-1.46.19-2.32v-1.08Z"/>
      <path class="cls-4" d="m87.01,2.79h3.99l7.19,10.98V2.79h4.47v18.53h-3.94l-7.21-10.97v10.97h-4.49V2.79Z"/>
      <path class="cls-4" d="m106.26,2.79h12.04v3.4h-7.57v3.93h6.68v3.4h-6.68v2.27c0,.8.17,1.35.5,1.65s.88.45,1.64.45h5.56v3.42h-7.34c-1.61,0-2.81-.42-3.62-1.27-.8-.84-1.21-2.06-1.21-3.65V2.79Z"/>
      <path class="cls-4" d="m121.49,8.57c0-1.99.58-3.46,1.75-4.39s2.79-1.4,4.88-1.4h4.85v3.4h-4.57c-1.61,0-2.41.84-2.41,2.53v2.05h6.55v3.43h-6.55v7.12h-4.49v-12.74Z"/>
      <path class="cls-4" d="m134.92,11.45c0-2.81.68-4.99,2.04-6.54,1.36-1.54,3.47-2.32,6.31-2.32s4.93.77,6.3,2.3c1.37,1.54,2.06,3.72,2.06,6.55v1.08c0,1.4-.17,2.65-.51,3.76-.34,1.11-.86,2.05-1.55,2.82-.69.77-1.56,1.36-2.6,1.77s-2.27.62-3.69.62-2.66-.2-3.71-.6c-1.05-.4-1.92-.99-2.6-1.76s-1.2-1.71-1.54-2.82c-.34-1.11-.51-2.37-.51-3.79v-1.08Zm4.52,1.08c0,.85.06,1.62.18,2.32.12.69.33,1.28.62,1.76.3.48.69.85,1.18,1.11.49.26,1.11.39,1.85.39s1.34-.13,1.84-.39c.5-.26.89-.63,1.18-1.11.29-.48.5-1.07.62-1.76.13-.69.19-1.46.19-2.32v-1.08c0-.85-.06-1.62-.19-2.29-.13-.67-.33-1.25-.62-1.72-.29-.47-.68-.84-1.18-1.08-.5-.25-1.11-.37-1.84-.37s-1.36.12-1.85.37c-.49.25-.88.61-1.18,1.08-.3.47-.5,1.05-.62,1.72-.12.68-.18,1.44-.18,2.29v1.08Z"/>
      <path class="cls-4" d="m154.07,17.4h.2c.29.1.63.19,1.02.28.39.09.8.17,1.22.24s.85.13,1.29.18.85.07,1.24.07h.58c.85,0,1.55-.16,2.12-.48.57-.32.85-.88.85-1.69,0-.69-.21-1.19-.63-1.51s-.98-.57-1.68-.76l-1.98-.55c-.54-.16-1.06-.37-1.56-.64-.5-.27-.95-.6-1.35-1.01s-.71-.9-.95-1.46-.36-1.23-.36-2c0-.93.18-1.74.55-2.42.36-.68.86-1.25,1.5-1.7s1.38-.79,2.25-1.01c.86-.23,1.79-.34,2.79-.34h.53c.32,0,.69.02,1.1.05s.83.08,1.24.14c.42.06.82.14,1.21.22.39.08.73.17,1.02.26v3.26h-.2c-.25-.06-.55-.13-.9-.21s-.71-.14-1.09-.19c-.38-.06-.77-.1-1.16-.14s-.75-.06-1.09-.06h-.63c-.76,0-1.39.15-1.89.43-.5.29-.75.79-.75,1.5,0,.63.19,1.08.58,1.36s.91.52,1.57.71l1.96.55c.63.18,1.21.4,1.74.66s1,.6,1.4,1c.4.4.71.89.93,1.47s.33,1.26.33,2.05c0,1-.18,1.86-.53,2.59-.36.73-.85,1.34-1.5,1.82s-1.41.84-2.3,1.07c-.89.23-1.87.35-2.93.35h-.76c-.37,0-.78-.02-1.23-.06s-.89-.1-1.33-.17-.87-.16-1.29-.25c-.42-.1-.8-.19-1.12-.29v-3.33Z"/>
      <path class="cls-4" d="m169.46,17.4h.2c.29.1.63.19,1.02.28.39.09.8.17,1.22.24s.85.13,1.29.18.85.07,1.24.07h.58c.85,0,1.55-.16,2.12-.48.57-.32.85-.88.85-1.69,0-.69-.21-1.19-.63-1.51s-.98-.57-1.68-.76l-1.98-.55c-.54-.16-1.06-.37-1.56-.64-.5-.27-.95-.6-1.35-1.01s-.71-.9-.95-1.46-.36-1.23-.36-2c0-.93.18-1.74.55-2.42.36-.68.86-1.25,1.5-1.7s1.38-.79,2.25-1.01c.86-.23,1.79-.34,2.79-.34h.53c.32,0,.69.02,1.1.05s.83.08,1.24.14c.42.06.82.14,1.21.22.39.08.73.17,1.02.26v3.26h-.2c-.25-.06-.55-.13-.9-.21s-.71-.14-1.09-.19c-.38-.06-.77-.1-1.16-.14s-.75-.06-1.09-.06h-.63c-.76,0-1.39.15-1.89.43s-.75.79-.75,1.5c0,.63.19,1.08.58,1.36s.91.52,1.57.71l1.96.55c.63.18,1.21.4,1.74.66s1,.6,1.4,1c.4.4.71.89.93,1.47s.33,1.26.33,2.05c0,1-.18,1.86-.53,2.59-.36.73-.85,1.34-1.5,1.82s-1.41.84-2.3,1.07c-.89.23-1.87.35-2.93.35h-.76c-.37,0-.78-.02-1.23-.06s-.89-.1-1.33-.17-.87-.16-1.29-.25c-.42-.1-.8-.19-1.12-.29v-3.33Z"/>
    </g>
  </g>
</svg>